<?xml version="1.0" encoding="utf-8"?>

<!DOCTYPE svg PUBLIC "-//W3C//DTD SVG 1.1//EN" "http://www.w3.org/Graphics/SVG/1.1/DTD/svg11.dtd">
<!-- Uploaded to: SVG Repo, www.svgrepo.com, Generator: SVG Repo Mixer Tools -->
<svg height="800px" width="800px" version="1.1" id="_x32_" xmlns="http://www.w3.org/2000/svg" xmlns:xlink="http://www.w3.org/1999/xlink" 
	 viewBox="0 0 512 512"  xml:space="preserve">
<style type="text/css">
	.st0{fill:#000000;}
</style>
<g>
	<path class="st0" d="M256,0C114.615,0,0,114.612,0,256c0,141.389,114.615,256,256,256c141.384,0,256-114.611,256-256
		C512,114.612,397.384,0,256,0z M256,350.719c19.793,0,36.016,16.223,36.016,36.017c0,19.785-16.223,36.008-36.016,36.008
		c-19.794,0-36.012-16.223-36.012-36.008C219.988,366.942,236.206,350.719,256,350.719z M278.393,279.166
		c-2.922,10.463-14.29,46.239-22.393,46.239c-8.107,0-19.471-35.776-22.384-46.239c-9.083-30.282-16.554-71.554-16.554-105.694
		c0-40.736,11.36-84.215,38.938-84.215c27.579,0,38.938,43.479,38.938,84.215C294.938,207.612,287.479,248.884,278.393,279.166z"/>
</g>
</svg>